
<svg version="1.1" id="Layer_1" xmlns="http://www.w3.org/2000/svg" xmlns:xlink="http://www.w3.org/1999/xlink" x="0px" y="0px"
	 width="50.82px" height="42.667px" viewBox="0 0 50.82 42.667" enable-background="new 0 0 50.82 42.667" xml:space="preserve">
<g>
	<path fill="#FFFFFF" d="M45.792,8H5.029C3.231,8,1.773,6.542,1.773,4.745c0-1.798,1.458-3.256,3.255-3.256h40.763
		c1.798,0,3.255,1.458,3.255,3.256C49.047,6.542,47.589,8,45.792,8z"/>
</g>
<g>
	<path fill="#FFFFFF" d="M45.792,19.059H5.029c-1.798,0-3.255-1.458-3.255-3.255c0-1.798,1.458-3.256,3.255-3.256h40.763
		c1.798,0,3.255,1.458,3.255,3.256C49.047,17.602,47.589,19.059,45.792,19.059z"/>
</g>
<g>
	<path fill="#FFFFFF" d="M45.792,30.119H5.029c-1.798,0-3.255-1.458-3.255-3.256c0-1.798,1.458-3.255,3.255-3.255h40.763
		c1.798,0,3.255,1.458,3.255,3.255C49.047,28.661,47.589,30.119,45.792,30.119z"/>
</g>
<g>
	<path fill="#FFFFFF" d="M45.792,41.178H5.029c-1.798,0-3.255-1.458-3.255-3.256s1.458-3.256,3.255-3.256h40.763
		c1.798,0,3.255,1.458,3.255,3.256S47.589,41.178,45.792,41.178z"/>
</g>
</svg>
