
<svg version="1.1" id="Layer_1" xmlns="http://www.w3.org/2000/svg" xmlns:xlink="http://www.w3.org/1999/xlink" x="0px" y="0px"
	 width="150.01px" height="107px" viewBox="0 0 150.01 107" enable-background="new 0 0 150.01 107" xml:space="preserve">
<g>
	<path fill="#991E20" d="M150.01,103c0,2.2-1.8,4-4,4H4c-2.2,0-4-1.8-4-4v-1.441c0-2.2,1.8-4,4-4h142.01c2.2,0,4,1.8,4,4V103z"/>
</g>
<g>
	<g>
		<g>
			<path fill="#B72327" d="M28.001,86.216c0,2.2-1.8,4-4,4H8.121c-2.2,0-4-1.8-4-4V4c0-2.2,1.8-4,4-4h15.88c2.2,0,4,1.8,4,4V86.216z
				"/>
		</g>
	</g>
</g>
<g>
	<g>
		<g>
			<path fill="#B72327" d="M67.297,86.216c0,2.2-1.8,4-4,4h-15.88c-2.2,0-4-1.8-4-4V30.768c0-2.2,1.8-4,4-4h15.88c2.2,0,4,1.8,4,4
				V86.216z"/>
		</g>
	</g>
</g>
<g>
	<g>
		<g>
			<path fill="#B72327" d="M106.592,86.216c0,2.2-1.8,4-4,4H86.713c-2.2,0-4-1.8-4-4V14.905c0-2.2,1.8-4,4-4h15.879c2.2,0,4,1.8,4,4
				V86.216z"/>
		</g>
	</g>
</g>
<g>
	<g>
		<g>
			<path fill="#B72327" d="M145.889,86.216c0,2.2-1.8,4-4,4h-15.881c-2.2,0-4-1.8-4-4V45.638c0-2.2,1.8-4,4-4h15.881
				c2.2,0,4,1.8,4,4V86.216z"/>
		</g>
	</g>
</g>
</svg>
