
<svg version="1.1" id="Layer_1" xmlns="http://www.w3.org/2000/svg" xmlns:xlink="http://www.w3.org/1999/xlink" x="0px" y="0px"
	 width="100px" height="92.858px" viewBox="0 0 100 92.858" enable-background="new 0 0 100 92.858" xml:space="preserve">
<rect x="6.5" y="5.923" fill="#B72327" width="85.006" height="80.644"/>
<g>
	<g>
		<path fill="#FAFAFA" d="M85,9c3.252,0,6,2.748,6,6v62.858c0,3.252-2.748,6-6,6H15c-3.252,0-6-2.748-6-6V15c0-3.252,2.748-6,6-6H85
			 M85,0H15C6.75,0,0,6.75,0,15v62.858c0,8.25,6.75,15,15,15h70c8.25,0,15-6.75,15-15V15C100,6.75,93.25,0,85,0L85,0z"/>
	</g>
	<g>
		<g>
			<path fill="#FAFAFA" d="M71.699,66.752c1.27,1.797,0.509,3.267-1.691,3.267h-6.197c-2.2,0-5.006-1.492-6.236-3.316l-5.852-8.682
				c-1.229-1.824-3.248-1.828-4.485-0.009l-5.913,8.699c-1.236,1.819-4.048,3.308-6.249,3.308h-6.197c-2.2,0-2.961-1.47-1.691-3.267
				l13.107-18.55c1.27-1.797,1.267-4.735-0.006-6.529L28.656,25.268c-1.273-1.794-0.514-3.263,1.686-3.263h6.024
				c2.2,0,5.012,1.488,6.25,3.308l4.621,6.795c1.237,1.819,3.255,1.815,4.484-0.01l4.564-6.776c1.229-1.825,4.034-3.317,6.234-3.317
				h6.111c2.2,0,2.955,1.466,1.678,3.257L58.605,41.679c-1.277,1.791-1.283,4.727-0.014,6.523L71.699,66.752z"/>
		</g>
	</g>
</g>
</svg>
