<?xml version="1.0" encoding="utf-8"?>
<!-- Generator: Adobe Illustrator 16.0.0, SVG Export Plug-In . SVG Version: 6.00 Build 0)  -->
<!DOCTYPE svg PUBLIC "-//W3C//DTD SVG 1.1//EN" "http://www.w3.org/Graphics/SVG/1.1/DTD/svg11.dtd">
<svg version="1.1" id="Layer_1" xmlns="http://www.w3.org/2000/svg" xmlns:xlink="http://www.w3.org/1999/xlink" x="0px" y="0px"
	 width="34.739px" height="32.342px" viewBox="32.631 30.258 34.739 32.342" enable-background="new 32.631 30.258 34.739 32.342"
	 xml:space="preserve">
<g>
	<path fill="#333333" d="M61.745,30.258H38.256c-3.102,0-5.625,2.523-5.625,5.624v21.092c0,3.103,2.523,5.626,5.625,5.626h23.489
		c3.102,0,5.625-2.523,5.625-5.626V35.882C67.37,32.781,64.847,30.258,61.745,30.258z M63.168,56.974
		c0,0.771-0.651,1.422-1.423,1.422H38.256c-0.771,0-1.422-0.65-1.422-1.422V35.882c0-0.77,0.651-1.421,1.422-1.421h23.489
		c0.771,0,1.423,0.651,1.423,1.421V56.974z"/>
	<path fill="#333333" d="M53.368,46.684c-0.284-0.402-0.283-1.105,0.003-1.505l3.925-5.508c0.337-0.474,0.409-0.98,0.199-1.388
		c-0.209-0.407-0.663-0.641-1.244-0.641h-2.05c-0.929,0-2.063,0.604-2.585,1.375l-1.528,2.273c-0.168,0.249-0.357,0.249-0.526,0
		l-1.55-2.28c-0.523-0.767-1.659-1.368-2.586-1.368h-2.023c-0.581,0-1.034,0.234-1.245,0.641c-0.21,0.408-0.139,0.914,0.197,1.387
		l3.904,5.507c0.28,0.393,0.28,1.111,0.002,1.506l-4.399,6.225c-0.335,0.475-0.406,0.979-0.195,1.386
		c0.211,0.408,0.666,0.643,1.246,0.643h2.078c0.929,0,2.065-0.601,2.587-1.367l1.983-2.92c0.167-0.248,0.356-0.251,0.526-0.001
		l1.965,2.914c0.516,0.771,1.649,1.374,2.581,1.374h2.078c0.581,0,1.036-0.234,1.246-0.643c0.211-0.406,0.14-0.911-0.195-1.386
		L53.368,46.684z"/>
</g>
<rect x="-111.487" y="-14.244" fill="#FAFAFA" width="114.012" height="111.011"/>
<rect x="132.475" y="-15.28" fill="#333333" width="114.012" height="111.011"/>
</svg>
